<?xml version="1.0" encoding="UTF-8"?><svg id="exportSvg" xmlns="http://www.w3.org/2000/svg" xmlns:xlink="http://www.w3.org/1999/xlink" viewBox="0 0 748.46 400.8"><defs><style>.cls-1{fill:#fa8c00;}.cls-2{font-size:14px;}.cls-2,.cls-3,.cls-4,.cls-5{font-family:CenturyGothic, 'Century Gothic';}.cls-2,.cls-3,.cls-4,.cls-5,.cls-6,.cls-7{isolation:isolate;}.cls-2,.cls-4{fill:#181818;}.cls-3{fill:#333;}.cls-3,.cls-8,.cls-4,.cls-5,.cls-7{font-size:12px;}.cls-8{font-family:MyriadPro-Regular, 'Myriad Pro';}.cls-9{letter-spacing:-.01em;}.cls-5{fill:#656565;}.cls-6{font-size:22px;}.cls-6,.cls-7{font-family:CenturyGothic-Bold, 'Century Gothic';}.cls-10{clip-path:url(#clippath);}.cls-11{fill:none;}.cls-12{letter-spacing:-.01em;}.cls-7{fill:#fff;}.cls-13{fill:#c4c4c4;}</style><clipPath id="clippath"><polygon class="cls-11" points="0 0 539.21 4.8 539.21 400.8 0 396 0 0"/></clipPath></defs><g class="cls-10"><text class="cls-6" transform="translate(0 22)"><tspan x="0" y="0">Every county in Hawaii has a high level of wildfire</tspan></text><text class="cls-6" transform="translate(0 47)"><tspan x="0" y="0">danger in 2020</tspan></text><text class="cls-2" transform="translate(0 74)"><tspan x="0" y="0">Comparing the counties with the lowest Burn Probability in each state, Hawaii&apos;s</tspan></text><text class="cls-2" transform="translate(0 91)"><tspan x="0" y="0">Kalawao county is the highest</tspan></text><text class="cls-4" transform="translate(39.52 118.8)"><tspan x="0" y="0">Hawaii</tspan></text><rect class="cls-1" x="82.53" y="104" width="416.45" height="20"/><text class="cls-4" transform="translate(9.8 143.22)"><tspan x="0" y="0">New Mexico</tspan></text><rect class="cls-13" x="82.53" y="128" width="329.11" height="20"/><text class="cls-4" transform="translate(25.71 166.8)"><tspan x="0" y="0">Wyoming</tspan></text><rect class="cls-13" x="82.53" y="152" width="327.14" height="20"/><text class="cls-4" transform="translate(40.85 190.8)"><tspan x="0" y="0">Florida</tspan></text><rect class="cls-13" x="82.53" y="176" width="309.88" height="20"/><text class="cls-4" transform="translate(52.18 214.8)"><tspan x="0" y="0">Utah</tspan></text><rect class="cls-13" x="82.53" y="200" width="290.78" height="20"/><text class="cls-4" transform="translate(19.39 238.95)"><tspan x="0" y="0">Delaware</tspan></text><rect class="cls-13" x="82.53" y="224" width="289.44" height="20"/><text class="cls-4" transform="translate(26.27 260.16)"><tspan x="0" y="0">Nevada</tspan></text><rect class="cls-13" x="82.53" y="248" width="276.39" height="20"/><text class="cls-4" transform="translate(1.83 286.8)"><tspan x="0" y="0">South Dakota</tspan></text><rect class="cls-13" x="82.53" y="272" width="273.92" height="20"/><text class="cls-4" transform="translate(46.18 310.8)"><tspan x="0" y="0">Texas</tspan></text><rect class="cls-13" x="82.53" y="296" width="269.16" height="20"/><text class="cls-4" transform="translate(47.5 334.8)"><tspan x="0" y="0">Idaho</tspan></text><rect class="cls-13" x="82.53" y="320" width="263.89" height="20"/><text class="cls-7" transform="translate(470.63 119)"><tspan x="0" y="0">68%</tspan></text><text class="cls-3" transform="translate(383.29 143)"><tspan x="0" y="0">53%</tspan></text><text class="cls-3" transform="translate(381.32 167)"><tspan x="0" y="0">53%</tspan></text><text class="cls-3" transform="translate(367.9 190.8)"><tspan x="0" y="0">50%</tspan></text><text class="cls-3" transform="translate(344.96 215)"><tspan x="0" y="0">47%</tspan></text><text class="cls-3" transform="translate(343.61 239)"><tspan x="0" y="0">47%</tspan></text><text class="cls-3" transform="translate(330.57 263)"><tspan x="0" y="0">45%</tspan></text><text class="cls-3" transform="translate(328.1 287)"><tspan x="0" y="0">44%</tspan></text><text class="cls-3" transform="translate(323.33 311)"><tspan x="0" y="0">44%</tspan></text><text class="cls-3" transform="translate(318.07 335)"><tspan x="0" y="0">43%</tspan></text><text class="cls-5" transform="translate(0 376)"><tspan x="0" y="0">Burn Probability : The annual probability of wildfire burning in a specific location.</tspan></text><text class="cls-8" transform="translate(683 42)"><tspan class="cls-9" x="0" y="0">L</tspan><tspan x="5.5" y="0">o</tspan><tspan class="cls-12" x="12.08" y="0">r</tspan><tspan x="15.89" y="0">em ipsum</tspan></text></g></svg>